<svg width="90" height="90" viewBox="0 0 90 90" fill="none" xmlns="http://www.w3.org/2000/svg">
<path fill-rule="evenodd" clip-rule="evenodd" d="M9 7C7.89543 7 7 7.89543 7 9V21C7 22.1046 7.89543 23 9 23H21C22.1046 23 23 22.1046 23 21V9C23 7.89543 22.1046 7 21 7H9ZM19 14.25H11V15.75H19V14.25Z" fill="#27326B" fill-opacity="0.17"/>
<path d="M21 37H9C7.89543 37 7 37.8954 7 39V51C7 52.1046 7.89543 53 9 53H21C22.1046 53 23 52.1046 23 51V39C23 37.8954 22.1046 37 21 37Z" fill="#FF003D"/>
<path d="M19 44.25H11V45.75H19V44.25Z" fill="white"/>
<path fill-rule="evenodd" clip-rule="evenodd" d="M9 67C7.89543 67 7 67.8954 7 69V81C7 82.1046 7.89543 83 9 83H21C22.1046 83 23 82.1046 23 81V69C23 67.8954 22.1046 67 21 67H9ZM19 74.25H11V75.75H19V74.25Z" fill="white"/>
<path d="M51 7H39C37.8954 7 37 7.89543 37 9V21C37 22.1046 37.8954 23 39 23H51C52.1046 23 53 22.1046 53 21V9C53 7.89543 52.1046 7 51 7Z" fill="#27326B" fill-opacity="0.17"/>
<path fill-rule="evenodd" clip-rule="evenodd" d="M39 37C37.8954 37 37 37.8954 37 39V51C37 52.1046 37.8954 53 39 53H51C52.1046 53 53 52.1046 53 51V39C53 37.8954 52.1046 37 51 37H39ZM44.5303 48.5303L50.5303 42.5303L49.4697 41.4697L44 46.9393L41.5303 44.4697L40.4697 45.5303L43.4697 48.5303L44 49.0607L44.5303 48.5303Z" fill="white"/>
<path d="M83 15C83 10.5817 79.4183 7 75 7C70.5817 7 67 10.5817 67 15C67 19.4183 70.5817 23 75 23C79.4183 23 83 19.4183 83 15Z" fill="#27326B" fill-opacity="0.17"/>
<path d="M83 45C83 40.5817 79.4183 37 75 37C70.5817 37 67 40.5817 67 45C67 49.4183 70.5817 53 75 53C79.4183 53 83 49.4183 83 45Z" fill="#0859D8"/>
<path d="M79 45C79 42.7909 77.2091 41 75 41C72.7909 41 71 42.7909 71 45C71 47.2091 72.7909 49 75 49C77.2091 49 79 47.2091 79 45Z" fill="white"/>
<path d="M45 73L46.3049 77.204L50.7063 77.1459L47.1113 79.686L48.5267 83.8541L45 81.22L41.4733 83.8541L42.8887 79.686L39.2937 77.1459L43.6951 77.204L45 73Z" fill="#FFA318"/>
<circle cx="45" cy="66" r="1" fill="#D8D9DE"/>
<circle cx="75" cy="75" r="5" stroke="#757786" stroke-width="2"/>
<path d="M85 75H84" stroke="#757786" stroke-width="2" stroke-linecap="round"/>
<path d="M75 85L75 84" stroke="#757786" stroke-width="2" stroke-linecap="round"/>
<path d="M67.929 82.071L68.6361 81.3639" stroke="#757786" stroke-width="2" stroke-linecap="round"/>
<path d="M82.0712 82.071L81.3641 81.3639" stroke="#757786" stroke-width="2" stroke-linecap="round"/>
<path d="M66 75H65" stroke="#757786" stroke-width="2" stroke-linecap="round"/>
<path d="M75 66L75 65" stroke="#757786" stroke-width="2" stroke-linecap="round"/>
<path d="M81.364 68.636L82.0711 67.9289" stroke="#757786" stroke-width="2" stroke-linecap="round"/>
<path d="M68.6361 68.636L67.929 67.9289" stroke="#757786" stroke-width="2" stroke-linecap="round"/>
</svg>
