<svg width="90" height="90" viewBox="0 0 90 90" fill="none" xmlns="http://www.w3.org/2000/svg">
    <path fill-rule="evenodd" clip-rule="evenodd" d="M9 7C7.89543 7 7 7.89543 7 9V21C7 22.1046 7.89543 23 9 23H21C22.1046 23 23 22.1046 23 21V9C23 7.89543 22.1046 7 21 7H9ZM19 14.25H11V15.75H19V14.25Z" fill="black" fill-opacity="0.34" />
    <path d="M21 37H9C7.89543 37 7 37.8954 7 39V51C7 52.1046 7.89543 53 9 53H21C22.1046 53 23 52.1046 23 51V39C23 37.8954 22.1046 37 21 37Z" fill="#FF003D" />
    <path d="M19 44.25H11V45.75H19V44.25Z" fill="white" />
    <path fill-rule="evenodd" clip-rule="evenodd" d="M9 67C7.89543 67 7 67.8954 7 69V81C7 82.1046 7.89543 83 9 83H21C22.1046 83 23 82.1046 23 81V69C23 67.8954 22.1046 67 21 67H9ZM19 74.25H11V75.75H19V74.25Z" fill="white" />
    <path d="M51 7H39C37.8954 7 37 7.89543 37 9V21C37 22.1046 37.8954 23 39 23H51C52.1046 23 53 22.1046 53 21V9C53 7.89543 52.1046 7 51 7Z" fill="black" fill-opacity="0.34" />
    <path fill-rule="evenodd" clip-rule="evenodd" d="M39 37C37.8954 37 37 37.8954 37 39V51C37 52.1046 37.8954 53 39 53H51C52.1046 53 53 52.1046 53 51V39C53 37.8954 52.1046 37 51 37H39ZM44.5303 48.5303L50.5303 42.5303L49.4697 41.4697L44 46.9393L41.5303 44.4697L40.4697 45.5303L43.4697 48.5303L44 49.0607L44.5303 48.5303Z" fill="white" />
    <path d="M83 15C83 10.5817 79.4183 7 75 7C70.5817 7 67 10.5817 67 15C67 19.4183 70.5817 23 75 23C79.4183 23 83 19.4183 83 15Z" fill="black" fill-opacity="0.34" />
    <path d="M83 45C83 40.5817 79.4183 37 75 37C70.5817 37 67 40.5817 67 45C67 49.4183 70.5817 53 75 53C79.4183 53 83 49.4183 83 45Z" fill="black" fill-opacity="0.34" />
    <path d="M79 45C79 42.7909 77.2091 41 75 41C72.7909 41 71 42.7909 71 45C71 47.2091 72.7909 49 75 49C77.2091 49 79 47.2091 79 45Z" fill="white" />
    <path d="M45 73L46.3049 77.204L50.7063 77.1459L47.1113 79.686L48.5267 83.8541L45 81.22L41.4733 83.8541L42.8887 79.686L39.2937 77.1459L43.6951 77.204L45 73Z" fill="#ffffff" />
    <circle cx="45" cy="66" r="1" fill="#ffffff" />
    <path d="M73.4366 68.0714L72.7265 68.7755L73.4366 68.0714ZM69.2846 79.9526L69.1688 78.9593L69.2846 79.9526ZM69.1053 80.4762L68.4818 81.2581L69.1053 80.4762ZM74.4658 73C74.4658 76.0756 72.1508 78.6119 69.1688 78.9593L69.4003 80.9459C73.3787 80.4824 76.4658 77.1024 76.4658 73H74.4658ZM72.7265 68.7755C73.8028 69.8609 74.4658 71.3521 74.4658 73H76.4658C76.4658 70.8035 75.5792 68.812 74.1467 67.3673L72.7265 68.7755ZM73.4658 69C76.7795 69 79.4658 71.6863 79.4658 75H81.4658C81.4658 70.5817 77.8841 67 73.4658 67V69ZM79.4658 75C79.4658 78.3137 76.7795 81 73.4658 81V83C77.8841 83 81.4658 79.4183 81.4658 75H79.4658ZM73.4658 81C72.0516 81 70.7541 80.512 69.7287 79.6944L68.4818 81.2581C69.8487 82.348 71.5825 83 73.4658 83V81ZM74.1467 67.3673C74.7251 67.9507 74.3477 69 73.4658 69V67C72.5097 67 72.0958 68.1394 72.7265 68.7755L74.1467 67.3673ZM69.1688 78.9593C68.6316 79.0219 68.2314 79.3892 68.0751 79.8287C67.9126 80.2861 68.0034 80.8766 68.4818 81.2581L69.7287 79.6944C69.9986 79.9096 70.0467 80.2538 69.9596 80.4986C69.8789 80.7256 69.6726 80.9142 69.4003 80.9459L69.1688 78.9593Z" fill="white" />
</svg>
