<svg width="30" height="90" viewBox="0 0 30 90" fill="none" xmlns="http://www.w3.org/2000/svg">
<path fill-rule="evenodd" clip-rule="evenodd" d="M9 7C7.89543 7 7 7.89543 7 9V21C7 22.1046 7.89543 23 9 23H21C22.1046 23 23 22.1046 23 21V9C23 7.89543 22.1046 7 21 7H9ZM19 14.25H11V15.75H19V14.25Z" fill="black" fill-opacity="0.34"/>
<rect x="7" y="37" width="16" height="16" rx="2" fill="#FF003D"/>
<rect x="11" y="44.25" width="8" height="1.5" fill="white"/>
<path fill-rule="evenodd" clip-rule="evenodd" d="M9 67C7.89543 67 7 67.8954 7 69V81C7 82.1046 7.89543 83 9 83H21C22.1046 83 23 82.1046 23 81V69C23 67.8954 22.1046 67 21 67H9ZM19 74.25H11V75.75H19V74.25Z" fill="white"/>
</svg>
