<svg width="12" height="25" viewBox="0 0 12 25" fill="none" xmlns="http://www.w3.org/2000/svg">
<path d="M6 1.68668L6.82736 4.3522L6.93806 4.70887L7.31148 4.70394L10.1022 4.66711L7.82282 6.27767L7.51782 6.49317L7.6379 6.84679L8.53531 9.48955L6.2992 7.81941L6 7.59593L5.7008 7.81941L3.46469 9.48955L4.3621 6.84679L4.48218 6.49317L4.17718 6.27767L1.89779 4.66711L4.68852 4.70394L5.06194 4.70887L5.17264 4.3522L6 1.68668Z" stroke="white" stroke-opacity="0.6"/>
<path d="M6 13L7.30488 17.204L11.7063 17.1459L8.11135 19.686L9.52671 23.8541L6 21.22L2.47329 23.8541L3.88865 19.686L0.293661 17.1459L4.69512 17.204L6 13Z" fill="#FFEBA3"/>
</svg>
