<svg width="90" height="60" viewBox="0 0 90 60" fill="none" xmlns="http://www.w3.org/2000/svg">
<path d="M72.5919 18.8639L82.7487 29.0208C83.1393 29.4113 83.1393 30.0445 82.7487 30.435L72.5919 40.5919" stroke="white" stroke-width="2.13" stroke-linecap="round"/>
<path d="M20.1307 15L48.8949 43.7642" stroke="white" stroke-width="2.13068" stroke-linecap="round"/>
<path d="M39.9439 33.7583H45.1558C46.4017 33.7583 47.4118 32.7483 47.4118 31.5023V17.9662C47.4118 16.7203 46.4017 15.7102 45.1558 15.7102H31.6197C30.3737 15.7102 29.3636 16.7203 29.3636 17.9662V23.178L39.9439 33.7583Z" fill="white"/>
<path d="M24.7576 26.3636H20.256C19.01 26.3636 18 27.3737 18 28.6196V42.1557C18 43.4017 19.01 44.4117 20.256 44.4117H33.7921C35.038 44.4117 36.0481 43.4017 36.0481 42.1557V37.6541L24.7576 26.3636Z" fill="white"/>
<rect x="22.9716" y="34.8864" width="9.02406" height="2.13068" rx="1.06534" fill="#FF003D"/>
<path d="M34.3352 24.0658L37.217 26.9477C37.4944 27.225 37.9441 27.225 38.2214 26.9477L44.4873 20.6818" stroke="#FF003D" stroke-width="2.13068" stroke-linecap="round"/>
</svg>
