<svg width="12" height="12" viewBox="0 0 12 12" fill="none" xmlns="http://www.w3.org/2000/svg">
<rect width="12" height="12" rx="6" fill="#FF4500"/>
<path d="M7.29492 7.93744C7.3441 7.98605 7.3441 8.06531 7.29492 8.11449C7.02587 8.38181 6.60407 8.51199 6.00407 8.51199L5.99944 8.51083L5.99481 8.51199C5.39538 8.51199 4.973 8.38181 4.70396 8.11392C4.65478 8.06531 4.65478 7.98605 4.70396 7.93744C4.75256 7.88884 4.8324 7.88884 4.88159 7.93744C5.10087 8.15557 5.46481 8.26204 5.99481 8.26204L5.99944 8.26319L6.00407 8.26204C6.53348 8.26204 6.89742 8.15557 7.11729 7.93744C7.16647 7.88884 7.24632 7.88884 7.29492 7.93744ZM10.0502 5.92566C10.0502 5.43327 9.64808 5.03288 9.15338 5.03288C8.9121 5.03288 8.69339 5.12951 8.53196 5.28457C7.92096 4.88245 7.09414 4.62671 6.17938 4.59373L6.67987 3.01762L8.03552 3.33527L8.03379 3.35495C8.03379 3.75765 8.36301 4.08514 8.76745 4.08514C9.17189 4.08514 9.50053 3.75765 9.50053 3.35495C9.50053 2.95224 9.17189 2.62476 8.76745 2.62476C8.45674 2.62476 8.19232 2.81859 8.08528 3.08995L6.62432 2.74742C6.56068 2.7318 6.4953 2.76883 6.47562 2.83132L5.91728 4.5891C4.95912 4.60067 4.0918 4.85872 3.45361 5.27242C3.29333 5.12488 3.08099 5.0323 2.84608 5.0323C2.35195 5.03288 1.94983 5.43327 1.94983 5.92566C1.94983 6.25315 2.12977 6.53666 2.39419 6.6923C2.37683 6.78719 2.36526 6.88382 2.36526 6.9816C2.36526 8.30138 3.98823 9.37526 5.98324 9.37526C7.97824 9.37526 9.60121 8.30138 9.60121 6.9816C9.60121 6.88902 9.59137 6.79818 9.57575 6.7085C9.85695 6.55749 10.0502 6.2653 10.0502 5.92566Z" fill="white"/>
<path d="M4.77019 6.00031C5.06412 6.00031 5.30366 6.23869 5.30366 6.53204C5.30366 6.82539 5.06412 7.06377 4.77019 7.06319C4.47568 7.06319 4.23615 6.82481 4.23615 6.53204C4.23615 6.23869 4.47568 6.00031 4.77019 6.00031Z" fill="#FF4500"/>
<path d="M6.69692 6.53262C6.69692 6.23927 6.93588 6.00088 7.23039 6.00088C7.5249 6.00088 7.76386 6.23927 7.76386 6.53262C7.76386 6.82539 7.52432 7.06377 7.23039 7.06377C6.93646 7.06377 6.69692 6.82539 6.69692 6.53262Z" fill="#FF4500"/>
</svg>
